<svg width="220" height="220" viewBox="0 0 220 220" fill="none" xmlns="http://www.w3.org/2000/svg">
<rect width="220" height="220" fill="white"></rect>
<g clip-path="url(#clip0_16148_273744)">
<rect width="220" height="220" fill="white"></rect>
<circle cx="151.917" cy="123.917" r="18.9167" fill="url(#paint0_linear_16148_273744)"></circle>
<path d="M209.516 239.838V130.252H133.032L46.5162 128.622L-7.14844 130.252V239.838H209.516Z" fill="#B2DFF7"></path>
<path d="M191.956 130.252C189.945 132.747 188.25 135.224 188.057 137.437C187.592 142.754 193.778 148.784 193.283 154.242C182.501 155.571 172.1 157.871 161.227 159.003C154.261 159.731 145.232 160.493 138.229 160.629C121.964 160.947 105.827 158.617 89.8332 157.197C90.8672 158.154 89.7356 160.048 90.1554 160.615C90.3647 160.881 96.1695 163.192 97.1066 163.441C105.475 165.677 115.291 165.78 123.764 166.585C125.248 166.727 135.706 168.26 136.196 168.534C136.481 168.69 136.197 169.461 136.534 169.725C137.269 170.296 138.986 170.174 138.567 171.356C134.405 170.599 130.401 170.121 132.568 173.797C131.771 174.299 125.226 171.302 123.569 172.826C120.089 172.069 116.512 171.595 113.07 170.872C109.824 170.194 106.592 169.559 103.322 168.919C99.1535 168.109 94.9994 166.898 90.7404 166.126C86.0015 165.272 80.4372 164.408 75.5783 164.036C74.9784 163.934 74.0256 164.105 73.3283 164.036C73.1409 163.992 72.8932 163.621 72.5783 163.548C72.1883 163.46 71.4681 163.636 71.0783 163.548C61.6227 161.366 50.2321 159.54 40.3342 158.178C32.8206 157.143 25.1566 156.718 17.8381 155.737C10.5123 154.75 3.37377 152.953 -3.90705 151.83C-4.06442 148.901 -1.54523 150.395 0.936697 150.39C4.92591 150.38 14.149 150.727 17.3586 150.39C17.9884 150.322 17.2839 149.243 19.7355 149.355C21.3476 149.428 20.4708 150.551 21.9553 150.395C23.8147 150.2 24.7673 148.544 27.2638 148.432C29.7831 148.32 31.2234 149.604 32.5881 149.736C37.8895 150.239 45.3209 150.244 51.4172 150.732C65.4995 151.855 73.9436 149.946 87.216 149.404C98.0737 148.959 110.086 149.594 120.959 148.91C126.658 148.549 122.738 146.626 126.576 145.005C128.504 145.21 137.097 143.863 140.389 144.009C141.041 144.039 140.936 145.181 142.03 145.43C143.448 145.747 145.532 145.332 147.167 145.513C148.802 145.694 151.164 145.894 152.408 146.05C153.316 146.162 153.324 147.226 153.706 147.387C153.992 147.509 156.976 146.86 158.07 147.446C158.073 147.439 158.076 147.432 158.078 147.426L157.97 147.375C156.8 146.881 153.999 147.485 153.714 147.367C153.332 147.206 153.323 146.143 152.416 146.031C151.171 145.874 148.847 145.679 147.175 145.493C145.503 145.308 143.455 145.728 142.038 145.41C140.944 145.166 141.048 144.019 140.396 143.99C137.103 143.843 128.51 145.191 126.583 144.986C107.634 142.959 87.8608 143.238 68.4396 143.013C54.6797 142.857 40.7691 142.515 26.8517 142.056C26.6694 141.813 26.5848 141.593 26.5705 141.396V141.397C26.5839 141.595 26.6682 141.816 26.8517 142.061C16.6163 141.724 6.32808 141.558 -3.8924 141.084V134.004C-3.89136 133.731 -2.63211 133.257 -2.0174 133.272C6.58992 132.881 15.2424 132.984 23.8498 132.784C23.8507 132.781 23.8517 132.777 23.8527 132.774C37.0425 132.461 50.2551 132.339 63.5949 132.285V132.29H91.34C95.0818 132.295 98.8463 132.281 102.588 132.29H103.338C118.148 132.339 133.107 132.364 147.954 132.681C149.979 132.725 151.944 131.875 154.554 132.393C159.892 133.448 152.769 137.989 152.754 139.859C152.739 141.46 154.021 141.348 155.078 142.056C155.198 142.139 155.686 141.978 155.828 142.056C155.835 142.06 155.838 142.067 155.841 142.076C157.801 142.245 157.916 140.771 158.797 140.396C159.277 140.191 160.552 140.586 161.557 140.249C163.836 139.493 167.397 136.755 167.811 136.704C167.871 136.695 168.17 137.129 168.478 137.173C169.733 134.262 172.429 132.256 175.482 130.252H191.956ZM157.328 143.277C157.022 143.766 155.33 144.211 155.037 145.06C155.349 144.224 157.016 143.782 157.32 143.296C157.337 143.27 157.346 143.246 157.352 143.225C157.346 143.24 157.34 143.258 157.328 143.277ZM24.9621 136.685C22.3608 136.041 24.6777 139.624 26.0949 138.633C26.5594 138.311 25.9292 136.924 24.9621 136.685ZM23.8088 132.97C23.57 134.629 28.3801 133.335 29.0988 133.759C29.0995 133.758 29.1009 133.756 29.1017 133.755C28.3997 133.332 23.5856 134.629 23.8088 132.97Z" fill="#A2DAF8"></path>
<path d="M88.0137 164.608H127.607C132.947 164.615 138.32 164.594 143.659 164.608H144.729C165.864 164.678 187.213 164.712 208.401 165.164C208.775 165.172 209.147 165.158 209.52 165.131V198.177C204.264 198.553 199.051 198.834 194.451 198.924C171.244 199.377 204.323 204.965 181.5 202.937C182.976 204.303 185.773 205.192 186.373 206C186.527 206.201 185.597 206.929 184.904 207.615C176.45 207.243 169.92 207.056 173.811 207.426C175.929 207.628 190.85 209.815 191.552 210.206C191.958 210.429 191.552 211.529 192.033 211.906C193.082 212.721 195.531 212.547 194.933 214.233C188.994 213.153 183.281 212.471 186.373 217.718C185.238 218.435 175.897 214.157 173.532 216.331C168.569 215.253 174.72 230.531 169.809 229.5C165.176 228.533 165.665 240.913 161 240C157.34 239.288 154.293 241.302 151.074 242.701H104.271C103.302 240.855 102.015 237.768 101.859 242.701H96.9062C83.7687 239.759 68.2887 237.287 54.7617 235.426C44.0404 233.947 33.1042 193.343 22.6611 191.942C12.2076 190.535 2.02116 187.97 -8.36816 186.367C-8.59263 182.187 -4.99752 184.318 -1.45605 184.311C4.2363 184.297 17.3964 184.792 21.9766 184.311C22.8753 184.214 21.8708 182.674 25.3691 182.834C27.6689 182.938 26.4183 184.541 28.5361 184.318C31.1894 184.039 32.5488 181.678 36.1113 181.517C39.7063 181.357 41.7617 183.189 43.709 183.378C51.2737 184.095 61.8773 184.103 70.5762 184.8C90.6706 186.402 102.72 183.678 121.658 182.904C137.152 182.27 154.294 183.175 169.809 182.2C170.414 182.162 170.944 182.108 171.407 182.046C146.361 179.85 120.431 180.161 94.9268 179.867C75.2904 179.645 55.4392 179.158 35.5781 178.505C35.5628 178.484 35.5495 178.462 35.5352 178.442C20.9148 177.967 6.21949 177.73 -8.37891 177.059V166.991C-8.37755 166.602 -6.57288 165.93 -5.69141 165.95C6.64847 165.395 19.0537 165.54 31.3936 165.256C31.3894 165.268 31.3866 165.281 31.3828 165.294C50.1776 164.85 69.0053 164.677 88.0137 164.6V164.608ZM184.904 207.615C202.717 208.399 229.072 210.001 184.5 208.942C183.879 208.777 184.302 208.211 184.904 207.615ZM32.9873 170.803C29.2583 169.888 32.5787 174.982 34.6104 173.574C35.2769 173.116 34.3741 171.144 32.9873 170.803ZM31.3965 165.256H31.3936C31.3943 165.253 31.3957 165.251 31.3965 165.249V165.256Z" fill="#A2DAF8"></path>
<path d="M155.5 198L66.9999 195.5C79.9999 197.667 99.9 202.4 75.5 204C51.1 205.6 47.3333 206 48.5 206L46.5 221C57.6667 222.5 86.2 226 111 228C142 230.5 139 222.5 87.4999 215.5C46.2999 209.9 68.9999 207.833 85.4999 207.5C168.3 202.7 166.667 199.167 155.5 198Z" fill="#B2DFF7"></path>
<path d="M56.0005 87.5001C35.2124 134.227 108.889 149.654 146.295 151.57H174.81V204H12.2305V-6.64038C60.0615 -6.64038 102.459 19.5001 118 77.5001C114.532 69.7391 113.543 81.2386 109.289 77.5001C90.9824 61.4104 63.5005 74.5001 56.0005 87.5001Z" fill="#A2DAF8"></path>
<path d="M94.1128 63.3938C89.8986 37.6011 73.1047 13.9866 62.0212 5.36534C104.347 18.9586 112.705 54.9494 114.205 72.004C115.404 85.6477 109.417 82.7974 107.898 77.1287C100.047 47.8274 99.7411 47.8274 96.0859 47.8274C101.285 71.8706 95.2023 67.46 94.1128 63.3938Z" fill="#E7F7FF"></path>
<path d="M100.314 66.0146C96.0998 40.2218 79.3058 16.6073 68.2223 7.98607C110.548 21.5793 118.906 57.5701 120.406 74.6248C121.606 88.2685 115.618 85.4181 114.099 79.7494C106.248 50.4481 105.942 50.4481 102.287 50.4481C107.486 74.4914 101.403 70.0807 100.314 66.0146Z" fill="#D9F2FF"></path>
<path d="M55.9213 24.8637C43.9636 3.01779 24.2639 -2.88443 12.6895 -6.41044C50.4024 -10.5497 67.6491 9.9165 74.5478 24.8637C80.0668 36.8214 74.7011 34.5985 71.3284 31.9923C67.6491 19.6667 57.0711 12.1394 52.242 9.9165C64.3837 29.7848 59.7539 28.1597 55.9213 24.8637Z" fill="#93D3F4"></path>
<path d="M124.909 194.112C90.1398 207.173 53.2388 199.554 39.1348 194.112C75.7437 201.286 111.572 197.101 124.909 194.112ZM102.604 189.053C85.3109 193.468 70.1025 190.893 64.6602 189.053C75.1461 191.445 94.325 190.05 102.604 189.053ZM174.81 182.04C161.96 184.858 136.235 189.933 118.47 190.893C130.427 189.207 155.125 185.189 158.253 182.614C152.581 184.453 137.74 187.581 123.759 185.373C132.412 185.443 157.595 182.481 174.81 175.703V182.04ZM49.5 151C58.3923 157.286 133.416 170.61 160.092 163.988C161.012 168.893 156.827 179.349 132.728 181.924C140.239 178.935 153.423 172.542 146.064 170.886C135.867 171.882 61.8259 167.373 49.5 151ZM-0.5 157.24C1.60269 157.752 3.98064 158.673 6.02148 159.619C10.6208 166.134 26.1197 179.532 51.3223 181.004C39.033 182.749 11.6558 182.616 -0.5 168.349V157.24ZM38.6748 34.5219C18.9752 49.7758 -10.9493 91.9193 26.9473 138.462C38.5984 151.8 76.204 177.923 133.417 175.715C95.608 181.326 23.2089 179.637 -0.5 136.618V58.8177C9.7822 40.3063 27.2635 34.522 38.6748 34.5219ZM52.0127 77.9838C61.8679 68.0215 72.3004 67.7347 81.2529 71.1215C69.7822 72.9677 59.9156 80.3229 56.5 88.0004C54.064 93.4761 52.9185 98.5152 52.8545 103.148V103.764C52.0553 127.286 82.4422 140.325 106.375 145.798C108.732 146.37 111.096 146.897 113.453 147.377C107.983 146.684 95.7697 144.822 75.6982 140.992C45.5741 135.243 30.857 99.3697 52.0127 77.9838ZM34.5889 52.516C20.4559 66.0684 21.9768 111.71 40.9746 132.484C2.80257 107.341 24.4217 58.589 34.5889 52.516ZM60.8047 62.1986C41.6315 66.1712 35.0052 85.7241 34.0889 95.0043C27.0464 68.1431 48.965 61.9416 60.8047 62.1986Z" fill="#89CBEE"></path>
<path d="M72.4636 148.498C73.5922 146.938 76.0377 152.918 76.414 153.958C77.919 155.778 76.414 159.678 73.2159 158.898C70.0179 158.118 49.1372 150.12 36.5336 127.5C26.4506 109.404 29.5734 89.4795 31.8308 84.0196C31.5298 86.3076 32.207 88.7862 32.5832 89.7395C32.5832 76.4278 41.2365 67.0333 45.5631 64C38.9415 72.9438 36.7845 81.073 36.5336 84.0196C42.5533 68.2119 53.0877 65.9933 57.6024 66.8599C48.272 71.4359 43.1804 79.6864 41.8008 83.2396C50.2284 73.8798 55.5959 74.1398 57.2262 75.4398C41.2365 77.7797 39.1673 96.7594 39.5435 110.539C39.9197 124.319 52.7115 140.439 54.7808 142.259C56.4362 143.714 56.7246 142.865 56.6619 142.259C55.458 139.971 56.1603 138.359 56.6619 137.839C58.1668 137.059 62.3053 145.898 62.8697 146.158C63.3212 146.366 63.6848 145.032 63.8102 144.338C65.6914 143.558 66.632 147.458 67.3844 148.498C67.9864 149.33 68.3877 148.845 68.5131 148.498C67.7607 146.626 68.1996 145.465 68.5131 145.118C70.2712 144.511 71.5345 146.823 72.2592 149.06C72.3674 148.951 72.4636 148.802 72.4636 148.498Z" fill="white"></path>
<path d="M101.79 153.521C72.8331 148.547 64.1299 149.3 63.256 151.427C62.3778 157.157 76.9934 161.131 84.4109 162.401C124.803 167.734 132.942 164.127 132.62 162.706C132.299 161.286 136.642 159.506 101.79 153.521Z" fill="white"></path>
<path d="M101.175 152.686C74.0309 148.948 65.846 149.67 64.9997 151.426C64.1066 156.14 77.7897 159.227 84.7428 160.182C122.624 164.079 130.314 161.021 130.028 159.859C129.743 158.697 133.844 157.185 101.175 152.686Z" fill="#FDB7A2"></path>
<path d="M65.0488 151.336C67.142 155.107 78.4009 157.581 84.4935 158.417C118.275 161.893 128.046 159.837 129.563 158.527C130.215 159.058 129.932 159.468 129.948 159.837L129.97 160.003C130.001 161.203 121.968 164.106 84.6771 160.27C77.724 159.315 64.0418 156.228 64.9339 151.514C64.9631 151.454 65.0016 151.394 65.0488 151.336Z" fill="#F5A48C"></path>
<g clip-path="url(#clip1_16148_273744)">
<path d="M86.6836 120.476L86.6797 120.427C86.6958 120.423 86.7129 120.426 86.7289 120.423C86.7147 120.438 86.6972 120.473 86.6836 120.476Z" fill="#FEFDFB"></path>
<path d="M102.196 112.894C102.179 112.892 102.163 112.898 102.146 112.897L102.143 112.848C102.163 112.856 102.18 112.878 102.196 112.894Z" fill="#5A87A1"></path>
<path d="M91.1423 112.405C91.404 112.392 91.6035 112.33 91.8575 112.3C92.2116 112.258 92.5796 112.285 92.9184 112.168C92.8454 112.319 92.8825 112.348 92.9414 112.465C92.9491 112.48 92.988 112.494 92.9948 112.51C92.7892 112.61 93.0625 112.734 93.0266 112.907C93.0488 112.899 93.0638 112.854 93.0712 112.853C93.1233 112.843 93.5056 113.647 93.6003 113.775C94.1879 114.572 95.3709 115.223 96.3631 114.816C97.1433 114.496 97.4306 113.314 97.5344 112.557C97.7221 112.574 97.6071 112.26 97.6885 112.243C97.8696 112.206 98.249 112.316 98.4445 112.331C98.9334 112.368 99.4284 112.375 99.9166 112.423C99.9327 112.424 99.9501 112.417 99.9661 112.419C99.9474 112.557 100.041 112.51 100.13 112.522C100.366 112.551 102.068 112.831 102.147 112.898C102.158 112.908 102.143 112.988 102.154 112.997C102.165 113.005 102.401 112.938 102.447 112.924C103.762 113.19 105.091 113.436 106.397 113.715C106.448 115.241 106.206 116.84 105.702 118.279C105.691 118.309 105.657 118.306 105.656 118.308L105.607 118.263C105.556 118.413 105.526 118.567 105.488 118.72C105.484 118.736 105.498 118.757 105.492 118.769C105.349 118.833 105.111 118.749 105.018 118.756L103.333 118.887C103.109 118.904 102.836 118.84 102.561 118.897C102.507 118.908 102.445 118.89 102.416 118.958C102.201 118.96 101.984 118.96 101.769 118.958C101.784 118.799 101.682 118.876 101.588 118.874C101.347 118.869 101.105 118.846 100.865 118.879C100.777 118.607 100.922 118.653 100.991 118.548C101.03 118.49 101.011 118.403 101.057 118.36C101.091 118.329 101.195 118.326 101.212 118.297C101.239 118.251 101.189 118.117 101.199 118.039C101.204 117.998 101.285 117.998 101.305 117.936C101.364 117.749 101.356 117.515 101.394 117.319C101.409 117.241 101.509 117.146 101.464 117.095C101.453 117.083 101.373 117.102 101.371 117.07C101.365 116.991 101.456 116.95 101.453 116.868C101.451 116.796 101.379 116.717 101.386 116.628C101.387 116.612 101.653 116.401 101.371 116.398L100.533 119.104C99.0175 121.826 97.506 124.854 96.1211 127.655C95.8906 128.122 95.7084 128.646 95.4772 129.116C93.9984 130.012 92.0476 130.393 90.3211 130.357C89.8223 130.346 89.2793 130.242 88.7847 130.233C88.7682 130.233 88.7516 130.237 88.7351 130.237C88.5343 130.173 88.2836 130.115 88.0756 130.089C88.0595 130.086 88.0426 130.094 88.0261 130.092L87.9232 130.051C87.9178 130.001 87.1336 129.761 86.9977 129.7C85.9427 129.226 85.4787 128.597 84.6211 127.964C84.4125 127.774 84.5643 127.43 84.6092 127.167C84.8554 125.719 85.5367 123.918 86.0435 122.52C86.1999 122.088 86.4167 121.63 86.5464 121.169L86.6066 120.782C86.6175 120.761 86.6412 120.746 86.6523 120.728C86.6991 120.651 86.7812 120.578 86.8148 120.464C86.9704 120.479 87.1042 120.411 87.2497 120.384C87.432 120.351 87.7343 120.354 87.9275 120.319C88.0096 120.304 88.1304 120.273 88.1052 120.167L88.165 120.256C88.2221 120.292 88.3876 120.126 88.4765 120.089C88.619 120.031 88.8331 120.092 88.8834 119.931C88.9157 119.827 88.8052 119.861 88.7553 119.867C88.0136 119.957 87.3833 120.288 86.7288 120.422C86.7126 120.425 86.6954 120.422 86.6792 120.426C86.5181 120.463 86.2104 120.468 85.9611 120.53C85.8696 120.554 85.7586 120.49 85.7989 120.644C85.1176 120.799 84.4521 121.005 83.7694 121.155C83.6999 121.152 83.4356 120.823 83.3633 120.733C82.4976 119.648 82.0275 118.026 81.8516 116.663C81.8438 116.601 81.8139 116.505 81.8665 116.457C83.1611 115.77 84.4175 115.015 85.7075 114.32C85.7509 114.405 85.8778 114.338 85.9342 114.306C87.2474 113.576 88.3574 113.003 89.8411 112.652C89.9321 112.631 90.0466 112.699 90.0059 112.541C90.0378 112.535 90.073 112.539 90.105 112.533C90.2189 112.652 90.3587 112.54 90.4519 112.507C90.8235 112.376 90.7791 112.42 91.1417 112.403L91.1423 112.405ZM97.7459 112.391L97.7497 112.441C97.7807 112.422 97.7794 112.405 97.7459 112.391ZM88.9492 119.802L88.9531 119.852C88.984 119.833 88.9827 119.816 88.9492 119.802Z" fill="#5A87A1"></path>
<path d="M96.1754 136.19C96.1953 136.202 96.2385 136.251 96.2822 136.281L96.3356 136.327C96.3598 136.344 96.4047 136.389 96.4424 136.418L96.4958 136.464C96.5143 136.478 96.5296 136.496 96.5491 136.51C96.5357 136.606 96.6076 136.609 96.6598 136.651C96.6948 136.679 96.6887 136.716 96.7665 136.742C97.0288 137.123 97.3458 137.476 97.5712 137.883C97.708 138.13 97.7978 138.478 97.915 138.697C97.6548 138.736 97.9183 138.817 97.9239 138.832C98.0799 139.211 98.1413 139.778 98.1788 140.172C98.1819 140.205 98.1839 140.238 98.1865 140.271L97.6119 141.861C95.8059 145.539 93.8433 149.151 92.4879 153.041C92.2119 153.833 91.7726 154.847 92.1618 155.656C92.4767 156.311 94.0016 157.412 94.64 157.841C95.2205 158.231 96.1041 158.608 96.5989 159.011C97.2006 159.501 96.9244 159.815 96.3461 160.091C95.3829 160.551 93.8804 160.633 92.852 160.362C92.1136 160.167 91.4407 159.704 90.7186 159.449C89.8387 159.139 88.4061 159.074 88.3308 157.858C88.2951 157.282 88.8235 156.215 89.0172 155.62C89.6172 153.78 89.6562 151.756 89.9299 149.832C90.3747 146.709 90.983 143.612 92.5356 140.833C92.5263 140.77 91.6319 140.215 91.4942 140.117C91.4261 140.069 91.3768 139.985 91.3336 139.955C91.569 138.96 92.1978 138.082 92.9291 137.389C93.316 137.022 93.8948 136.6 94.3857 136.392C94.8765 136.184 95.7108 135.907 96.1759 136.19L96.1754 136.19Z" fill="#F3B68C"></path>
<path d="M102.936 134.669C103.501 135.193 104.037 135.628 104.516 136.255C105.931 138.106 105.389 139.424 104.506 141.31C103.177 144.15 101.495 146.921 100.096 149.747C99.8302 150.284 99.4796 150.9 99.2836 151.457C98.9642 152.366 99.2093 152.538 99.8756 153.076C101.041 154.017 102.426 154.606 103.573 155.457C103.855 155.666 104.232 155.901 103.883 156.228C103.278 156.797 101.674 156.826 100.893 156.695C100.04 156.552 99.2992 156.077 98.4716 155.85C97.8589 155.681 97.2273 155.668 96.6252 155.521C94.4882 154.999 95.702 153.397 96.1677 152.075C96.8517 150.134 97.1171 148.245 97.5269 146.253C97.9982 143.961 98.9325 141.905 100.093 139.89C100.099 139.821 100.034 139.791 99.987 139.76C99.6269 139.526 99.0054 139.27 98.5881 139.044C98.5564 138.905 98.5889 138.778 98.6069 138.643C98.8144 137.107 100.388 135.328 101.852 134.853C102.226 134.732 102.534 134.67 102.935 134.669L102.936 134.669Z" fill="#F3B68B"></path>
<path d="M83.8463 130.167C83.9831 129.881 84.3001 128.029 84.4252 127.933C84.5424 127.843 84.5775 128 84.5872 128.003C84.6063 128.011 84.6209 127.962 84.623 127.963C85.4806 128.596 85.9446 129.225 86.9996 129.699C87.1355 129.76 87.9197 130.001 87.9251 130.05C87.9253 130.053 87.8665 130.047 87.8793 130.103C87.9278 130.105 87.9809 130.088 88.028 130.092C88.0445 130.093 88.0614 130.086 88.0775 130.088C88.1772 130.19 88.2932 130.234 88.4354 130.21C88.4517 130.291 88.3248 130.275 88.2969 130.345C88.2568 130.446 88.3606 130.498 88.4351 130.508C88.5866 130.528 88.4558 130.293 88.4888 130.255C88.497 130.245 88.6868 130.237 88.737 130.236C88.7534 130.235 88.7701 130.232 88.7865 130.232C88.9949 130.309 88.7912 130.331 88.8023 130.455C88.9866 130.485 88.843 130.787 88.9432 130.967C88.8039 131.022 88.8468 130.861 88.7548 130.839C88.7198 130.83 88.5923 130.839 88.5859 130.846C88.5537 130.881 88.4725 131.769 88.5097 131.799C88.5214 131.808 88.7516 131.801 88.8108 131.825L88.6815 131.437C88.8448 131.441 89.1392 131.406 89.1138 131.181C89.113 131.17 88.9107 131.114 88.9977 131.014C89.0324 130.973 89.3382 130.957 89.2569 131.143C89.4113 131.205 89.3865 130.969 89.4947 131.027C89.5019 131.031 89.6049 131.137 89.6055 131.145C89.6106 131.205 89.5512 131.294 89.5729 131.367L89.2722 131.34C89.3931 131.704 89.1579 131.615 89.1029 131.728C89.06 131.817 89.1976 131.786 89.2102 131.826C89.2462 131.937 89.2015 132.062 89.2113 132.169C89.2146 132.205 89.2871 132.246 89.2875 132.303C89.288 132.463 88.9011 132.81 89.5621 132.515L89.5284 132.716L89.8214 132.644C89.8919 132.924 89.5183 132.818 89.4963 132.945C89.488 132.992 89.6047 133.192 89.6222 133.2C89.7604 133.266 89.8195 133.025 89.9512 133.033C89.9663 133.047 89.8955 133.394 89.8791 133.447C89.8668 133.487 89.8128 133.485 89.7941 133.533C89.7787 133.572 89.8189 133.654 89.7971 133.688C89.7741 133.725 89.6068 133.644 89.6629 133.802C89.7332 133.834 90.0506 133.859 90.067 133.871C90.0893 133.888 90.0077 134.051 90.0328 134.073L90.2267 134.008C90.1851 134.282 90.3881 134.206 90.4354 134.251C90.4688 134.283 90.4434 134.47 90.541 134.481C90.7086 134.502 90.6958 134.305 90.7401 134.24C90.796 134.158 90.924 134.194 90.8785 134.057C90.6322 134.005 90.6803 134.252 90.4979 134.286C90.408 134.096 90.6118 134.05 90.6246 133.991C90.6419 133.911 90.5766 133.783 90.6504 133.7C90.4643 133.749 90.2556 133.983 90.1527 133.691C90.2077 133.558 90.4398 133.67 90.387 133.497L89.9867 133.478C89.9616 133.199 90.3472 133.428 90.4954 133.494C90.5367 133.513 90.5465 133.581 90.5776 133.583C90.6844 133.592 90.7727 133.49 90.8866 133.531C91.1158 133.613 90.7946 134.036 91.119 133.939C90.9741 133.779 91.1918 133.469 91.3399 133.573C91.4533 133.653 91.1546 133.69 91.2561 133.778C91.2657 133.786 91.4218 133.774 91.4777 133.807C91.5215 133.833 91.5047 133.905 91.5332 133.938C91.5716 133.983 91.6445 133.959 91.6793 134.068C91.7339 134.238 91.6206 134.197 91.4889 134.209C91.4771 134.34 91.6068 134.399 91.6178 134.522C91.6288 134.644 91.4644 134.889 91.6009 134.997C91.7044 135.08 91.6833 134.808 91.7899 134.884C91.8337 134.915 91.9593 135.236 91.9833 135.256C92.0036 135.273 92.1552 135.243 92.1791 135.377C92.181 135.389 91.9867 135.435 92.089 135.508C92.2547 135.626 92.2398 135.209 92.37 135.287C92.504 135.729 92.7298 135.446 92.6124 135.147C92.5665 135.031 92.1324 135.173 92.1122 135.157C92.0963 135.144 91.9964 134.827 91.9824 134.768L92.2979 134.993C92.2468 134.739 92.5926 134.751 92.7703 134.658C92.8167 134.825 92.7687 134.978 92.7594 135.134C92.7494 135.307 92.9371 135.099 93.0304 135.086C93.1009 135.077 93.279 135.142 93.3036 135.113C93.3082 135.108 93.2873 135.032 93.3125 134.983C93.4229 134.774 93.6422 134.87 93.6813 134.835C93.7834 134.743 93.4876 134.747 93.5674 134.646C93.6151 134.585 93.9471 134.514 93.9214 134.717L93.7261 134.756C93.8071 135.069 94.065 134.814 94.0971 135.176C94.1114 135.336 93.9673 135.502 94.2273 135.441C94.1463 135.245 94.2701 135.215 94.298 135.145C94.3084 135.119 94.3922 134.778 94.4823 134.873L94.5091 135.219C94.6705 135.263 94.5738 135.088 94.5983 135.064C94.6209 135.041 94.8697 135.068 94.892 135.097C94.9326 135.152 94.9088 135.404 94.9302 135.506C94.9459 135.582 95.223 135.548 94.9677 135.335L95.2967 135.084C95.0976 134.908 94.7348 134.845 94.7551 134.528C94.7667 134.35 94.9255 134.592 94.9374 134.591C94.9825 134.587 95.0636 134.508 95.0991 134.528C95.1601 134.564 95.3531 134.969 95.408 135.035C95.4355 135.068 95.52 135.078 95.5721 135.139C95.8263 135.441 96.0667 135.816 96.392 136.019C96.3055 135.752 96.0289 135.586 95.982 135.321C95.9713 135.26 96.0106 135.188 95.9997 135.137C95.9935 135.109 95.6796 134.79 95.6298 134.694C95.5331 134.507 95.6162 134.332 95.5239 134.144C95.6803 134.117 95.6892 134.271 95.6917 134.38C95.9025 134.263 95.8147 134.392 95.8441 134.417C96.0726 134.612 95.8205 134.163 95.8222 134.146C95.8484 133.906 96.3092 134.179 96.2401 134.387L96.4334 134.321C96.4618 134.096 96.2668 134.134 96.1688 134.065C95.9722 133.928 95.9987 133.524 95.9079 133.317C96.1457 133.246 96.1845 133.516 96.2491 133.539C96.3506 133.575 96.4312 133.328 96.5635 133.415C96.5719 133.42 96.5729 133.62 96.6697 133.506C96.7666 133.392 96.5714 133.42 96.5635 133.415C96.5535 133.408 96.5888 133.265 96.4958 133.197C96.5815 133.088 96.6793 133.308 96.7322 133.379C96.7484 133.402 96.8132 133.402 96.816 133.424C96.8262 133.512 96.7069 133.599 96.7352 133.7C97.1656 133.839 96.9713 133.532 97.261 133.411C97.2581 133.495 97.2954 133.597 97.2815 133.675C97.2795 133.688 97.0632 133.791 97.2718 133.858C97.3678 133.888 97.3288 133.751 97.3626 133.75C97.4683 133.744 97.5013 133.9 97.6778 133.791C97.8447 133.687 97.851 133.479 97.8643 133.464C97.9844 133.335 98.1006 133.728 98.275 133.631C98.3094 133.393 98.1686 133.287 98.0846 133.098C98.2505 133.16 98.2905 132.983 98.3044 132.981C98.3469 132.977 98.414 133.025 98.4492 133.017C98.5959 132.979 98.3968 132.687 98.4465 132.621C98.4641 132.597 98.595 132.685 98.6489 132.635C98.7136 132.575 98.673 132.373 98.7433 132.296C98.7668 132.271 99.0797 132.109 99.1247 132.118C99.1814 132.129 99.1312 132.24 99.2113 132.212C99.3173 131.714 98.9082 131.549 98.5858 131.293C98.5295 131.249 98.4453 131.307 98.5328 131.168C99.1588 131.606 99.8113 131.985 100.382 132.52C100.475 132.608 100.548 132.749 100.699 132.745C100.764 132.794 100.811 132.845 100.859 132.882C100.946 133.031 101.064 133.115 101.208 133.203L101.229 133.153C101.284 133.198 101.335 133.246 101.389 133.29C101.429 133.322 101.503 133.389 101.549 133.427C101.567 133.442 101.584 133.457 101.602 133.472C101.673 133.531 101.745 133.595 101.816 133.655C102.015 133.823 102.208 133.987 102.403 134.158L102.51 134.25C102.581 134.312 102.653 134.369 102.724 134.432L102.785 134.577C102.508 134.583 102.257 134.623 101.997 134.715C101.916 134.743 101.821 134.721 101.859 134.848C100.394 135.324 98.8208 137.103 98.6133 138.639C98.4113 138.503 98.6133 138.844 98.4054 138.856C98.3637 138.859 98.0382 138.653 98.0067 138.613C97.9475 138.538 97.9994 138.474 97.984 138.449C97.6085 137.849 97.2717 137.234 96.8088 136.689C96.789 136.691 96.7738 136.739 96.7707 136.738C96.6929 136.712 96.699 136.675 96.664 136.647L96.7101 136.619C96.679 136.48 96.5676 136.516 96.5533 136.506C96.5338 136.492 96.5185 136.474 96.4999 136.46C96.4814 136.446 96.4651 136.429 96.4466 136.414C96.4089 136.385 96.364 136.339 96.3398 136.323C96.3208 136.31 96.3054 136.291 96.2864 136.277C96.2427 136.247 96.1995 136.198 96.1796 136.186C95.9723 135.89 95.6756 135.947 95.3439 136.002C94.4778 136.146 93.4965 136.727 92.9328 137.384C92.2015 138.078 91.5727 138.955 91.3373 139.951C90.2951 139.206 89.3039 138.483 88.3171 137.643L88.2104 137.551C88.1923 137.536 88.1746 137.52 88.157 137.505C87.7632 137.172 87.3293 136.802 86.929 136.454C86.8409 136.378 86.7508 136.303 86.6621 136.226L86.6544 136.126L86.6087 136.18C85.8664 135.529 85.1488 134.817 84.5949 133.993C84.6885 133.959 84.5847 133.842 84.558 133.793C83.8321 132.447 83.7798 131.747 83.8533 130.213C83.854 130.196 83.8487 130.179 83.8494 130.163L83.8463 130.167ZM87.4902 130.234C87.4244 130.028 87.5128 129.953 87.1742 130.009L87.3262 130.048C87.4044 130.163 87.1998 130.23 87.4907 130.234C87.5183 130.32 87.6278 130.594 87.7571 130.462C87.8214 130.397 87.588 130.332 87.633 130.231C87.6067 130.206 87.5331 130.234 87.4902 130.234ZM87.9305 130.153C87.9218 130.143 87.6884 130.109 87.6812 130.119C87.5716 130.268 87.9275 130.319 87.9438 130.298C87.9483 130.292 87.9386 130.161 87.931 130.152L87.9305 130.153ZM87.1963 130.307C87.1381 130.257 87.0471 130.363 87.1053 130.413C87.1635 130.463 87.2545 130.357 87.1963 130.307ZM88.0022 130.447C87.8703 130.405 87.8194 130.686 87.8356 130.773C88.0614 130.967 88.6124 131.618 88.2867 130.87C88.6 130.893 88.6348 130.557 88.3046 130.67C88.2589 130.685 88.3033 130.808 88.2057 130.776L88.0017 130.447L88.0022 130.447ZM88.7553 130.485C88.6971 130.435 88.6062 130.541 88.6644 130.591C88.7226 130.641 88.8135 130.535 88.7553 130.485ZM88.2871 131.518C88.1774 131.453 87.9977 131.823 88.3525 131.712C88.3626 131.701 88.296 131.524 88.2871 131.518ZM89.0255 132.061C88.895 131.998 88.9061 132.257 88.8665 132.273C88.6564 132.36 88.6949 132.091 88.4862 132.151C88.4596 132.303 88.7256 132.256 88.6462 132.383C88.6396 132.394 88.5172 132.378 88.5611 132.468C88.6994 132.753 88.7997 132.44 88.8143 132.429C88.835 132.414 89.2403 132.485 89.1354 132.186C89.1328 132.178 89.0332 132.064 89.0255 132.061ZM89.0349 132.806C88.9767 132.756 88.8858 132.863 88.944 132.912C89.0022 132.962 89.0931 132.856 89.0349 132.806ZM98.9181 132.339C98.8646 132.292 98.7269 132.451 98.7814 132.499C98.836 132.546 98.9726 132.387 98.9181 132.339ZM88.8176 133.314C88.8779 133.14 88.532 133.128 88.6355 133.435C88.6659 133.466 88.8139 133.325 88.8176 133.314ZM89.6184 133.259L89.4702 133.271L89.4778 133.369L89.626 133.358L89.6184 133.259ZM89.7507 133.996L89.7546 134.046C89.7855 134.027 89.7842 134.01 89.7507 133.996ZM89.6341 134.106C89.5759 134.056 89.4849 134.162 89.5431 134.212C89.6013 134.262 89.6923 134.155 89.6341 134.106ZM91.4255 134.066C91.3559 134.056 91.2958 134.103 91.285 134.176L91.4331 134.164L91.4255 134.066ZM90.0458 134.273C89.9586 134.279 89.937 134.252 89.9576 134.35C89.9883 134.495 89.9524 134.746 90.1299 134.715L90.0458 134.273ZM91.3534 134.467C91.5023 134.259 91.0548 134.19 90.9387 134.204C90.8888 134.511 91.1427 134.29 91.1142 134.539C91.1587 134.522 91.3462 134.477 91.3534 134.467ZM96.5939 133.865L96.4953 133.873L96.5106 134.071L96.6092 134.063L96.5939 133.865ZM96.895 133.892C96.8369 133.842 96.7459 133.948 96.8041 133.998C96.8623 134.048 96.9532 133.942 96.895 133.892ZM97.4439 133.899C97.3857 133.849 97.2948 133.955 97.353 134.005C97.4112 134.055 97.5021 133.949 97.4439 133.899ZM91.3687 134.619C91.2838 134.546 91.1471 134.706 91.232 134.779C91.3169 134.851 91.4536 134.692 91.3687 134.619ZM95.8968 134.517C95.8386 134.468 95.7476 134.574 95.8058 134.624C95.864 134.673 95.955 134.567 95.8968 134.517ZM95.9655 134.761C95.9073 134.711 95.8164 134.818 95.8746 134.868C95.9328 134.917 96.0237 134.811 95.9655 134.761ZM93.7916 135.139C93.7731 135.126 93.368 135.005 93.3539 135.139L93.7594 135.232L93.6381 135.589L93.8628 135.363C93.8736 135.341 93.8074 135.15 93.7921 135.139L93.7916 135.139ZM93.9417 135.018C93.8835 134.968 93.7926 135.074 93.8508 135.124C93.909 135.174 93.9999 135.068 93.9417 135.018ZM96.1257 134.898C96.0675 134.849 95.9765 134.955 96.0347 135.005C96.0929 135.054 96.1839 134.948 96.1257 134.898ZM94.6204 135.413C94.6671 135.36 94.5084 135.222 94.4607 135.277C94.4131 135.331 94.5728 135.468 94.6204 135.413ZM93.2792 135.467C93.2696 135.459 93.1712 135.482 93.1311 135.479L93.158 135.826C93.2933 135.803 93.3473 135.689 93.5005 135.749C93.5358 135.569 93.3273 135.696 93.2946 135.666C93.2764 135.65 93.2984 135.483 93.2792 135.467L93.2792 135.467ZM92.2955 135.644C92.2373 135.594 92.1463 135.7 92.2045 135.75C92.2627 135.8 92.3537 135.694 92.2955 135.644ZM94.2927 135.688L94.2871 135.615C94.2285 135.541 94.1738 135.537 94.0836 135.555L94.095 135.703L94.2927 135.688ZM92.6043 135.769C92.5028 135.683 92.3341 135.917 92.4758 136.028C92.5836 136.113 92.6357 135.796 92.6043 135.769ZM94.2663 135.99L94.1677 135.997L94.1792 136.145L94.2778 136.138L94.2663 135.99Z" fill="#396686"></path>
<path d="M106.397 113.715L108.401 113.905C108.814 112.65 109.341 111.427 109.734 110.165C110.092 109.017 110.382 108.039 110.201 106.813C110.11 106.198 109.808 105.7 109.814 105.052C109.819 104.486 110.182 103.923 110.178 103.329C109.965 102.349 109.588 101.277 109.444 100.294C109.388 99.9088 109.323 99.1951 109.949 99.4884C110.344 99.6737 110.877 101.604 111.015 102.08C111.04 102.164 111.043 102.252 111.048 102.338L111.459 102.158C111.622 101.547 111.692 100.307 112.077 99.819C112.268 99.5764 112.608 99.4758 112.696 99.8458C112.86 100.537 112.621 101.344 112.519 102.025L112.439 102.28C112.303 102.185 112.142 102.187 111.982 102.167C112.065 102.4 112.194 102.558 112.222 102.821C112.229 102.89 112.146 103.162 112.345 102.953C112.505 102.784 112.335 102.35 112.634 102.512C112.97 102.694 113.076 103.28 113.022 103.635C112.967 103.986 112.723 103.909 112.676 103.963C112.665 103.975 112.674 104.121 112.648 104.194C112.537 104.507 112.329 104.846 112.182 105.137C112.128 105.245 111.779 105.791 111.87 105.863C112.051 106.009 112.194 105.516 112.271 105.487C112.407 105.435 112.476 105.625 112.586 105.649C112.99 105.739 113.679 104.948 113.764 104.571L113.252 105.08C113.134 105.179 112.517 105.601 112.433 105.343C112.424 105.315 112.484 104.809 112.495 104.756C112.565 104.426 112.809 104.252 112.994 104.027C113.256 103.71 113.273 103.417 113.836 103.568C113.854 103.583 113.873 103.598 113.89 103.614C114.04 104.06 113.971 104.534 113.961 104.994C113.959 105.074 113.919 105.204 114.016 105.249C113.935 105.973 113.764 106.491 113.436 107.134C113.336 107.329 113.041 107.7 112.996 107.868C112.874 108.326 112.902 109.131 112.847 109.637C112.666 111.294 112.462 113.022 112.18 114.663C111.815 116.784 111.796 117.468 109.522 118.009C109.236 117.931 108.854 118.086 108.559 118.133C108.265 118.18 107.944 118.117 107.701 118.3C107.667 118.303 107.635 118.304 107.602 118.307C107.387 118.275 106.946 118.146 106.809 118.369C106.776 118.371 106.743 118.375 106.71 118.376C106.66 118.294 106.535 118.351 106.458 118.346C106.426 118.344 106.391 118.355 106.359 118.354C106.352 118.354 106.34 118.31 106.235 118.312C106.044 118.313 105.852 118.354 105.661 118.358C105.666 118.344 105.653 118.323 105.658 118.308C105.658 118.306 105.693 118.309 105.703 118.28C106.208 116.841 106.45 115.242 106.398 113.715L106.397 113.715ZM111.967 103.912L110.478 103.978C110.406 104.045 110.746 104.199 110.778 104.242C111.061 104.104 111.679 104.231 111.898 104.061C111.955 104.017 111.99 103.991 111.967 103.912Z" fill="#F3B68C"></path>
<path d="M96.8997 103.734C97.2355 103.739 97.8675 103.79 98.1614 103.935C98.4552 104.08 98.6584 104.812 98.7528 105.135L99.1395 108.196C99.1404 108.245 99.1512 108.295 99.1511 108.344C98.9973 108.328 99.0633 108.428 99.0653 108.523C99.0769 109.053 99.0322 109.492 98.9643 110.012C98.9546 110.086 98.9018 110.209 98.9997 110.25C98.8458 110.952 98.5998 111.47 98.0326 111.92C97.9536 111.82 97.85 112.001 97.7571 112.031C97.3664 112.154 96.4413 111.929 96.0447 111.784C95.7698 111.683 95.5341 111.517 95.2543 111.438C95.2575 111.697 95.4199 111.663 95.5127 111.729C95.5575 111.761 95.5555 111.851 95.6023 111.895C95.736 112.019 96.0022 112.013 96.1587 112.071C96.3804 112.152 96.3171 112.173 96.623 112.242C96.8822 112.3 97.2709 112.447 97.5183 112.358C97.512 112.418 97.5416 112.498 97.5336 112.556C97.4298 113.313 97.1426 114.495 96.3624 114.815C95.3702 115.222 94.1868 114.571 93.5997 113.774C93.5051 113.646 93.1233 112.842 93.0707 112.852C93.0719 112.732 93.0372 112.619 92.9943 112.509C92.9875 112.493 92.9486 112.479 92.9409 112.464C92.8779 112.306 92.9806 112.216 93.0131 112.109C93.1873 111.534 93.2446 111.039 93.2828 110.443C93.2953 110.246 93.3139 110.041 93.335 109.844C92.5573 109.746 92.0435 108.499 91.9885 107.822C91.9041 106.778 93.2598 106.977 93.6983 107.554C93.7404 107.609 93.8518 107.946 93.9287 107.852C93.9478 107.829 94.0074 107.343 94.0177 107.257C94.0608 106.907 94.0958 106.419 94.0896 106.07C94.0855 105.85 93.9552 105.024 93.9872 104.922C94.1229 104.486 95.192 103.99 95.6153 103.883C96.0387 103.776 96.4571 103.727 96.8997 103.734Z" fill="#F3B68C"></path>
<path d="M81.8502 116.664C82.0261 118.027 82.4962 119.649 83.3618 120.734C82.9995 120.805 82.6301 120.881 82.2751 120.983C80.9085 121.376 79.1318 122.876 77.8938 123.708C77.2646 124.13 75.6619 124.975 75.3184 125.527C75.1065 125.868 75.0039 126.312 74.8217 126.675C74.56 127.196 73.1775 129.307 72.7303 129.511C72.5782 129.581 72.5139 129.472 72.4739 129.316C72.3204 128.717 72.9711 127.988 73.1666 127.456C71.9714 127.514 71.4042 128.64 70.6144 129.318C70.4447 129.463 69.7254 130.027 69.6827 129.496C69.6432 129.005 70.6954 127.694 71.0098 127.274C70.6652 127.24 70.5387 127.633 70.358 127.849C70.1371 128.112 69.7156 128.736 69.3163 128.576C68.9727 128.438 69.5259 127.582 69.652 127.383C70.4346 126.142 71.3713 125.36 72.594 124.582C72.8334 124.43 73.1136 124.36 73.3582 124.172C73.6706 123.933 74.0892 123.45 74.3795 123.15C76.2685 121.201 77.9547 119.323 80.1721 117.701C80.69 117.323 81.2607 116.917 81.8506 116.663L81.8502 116.664Z" fill="#F3B68C"></path>
<path d="M96.403 101.18C96.4194 101.18 96.4361 101.177 96.4525 101.177C97.0415 101.328 97.6271 101.333 98.0955 101.769C98.4668 102.116 98.6268 102.61 98.5225 103.11L98.2492 103.778C98.2162 103.827 98.1926 103.884 98.1617 103.935C97.8678 103.789 97.2358 103.738 96.8999 103.733C96.9161 103.582 96.8167 103.643 96.7213 103.648C96.4138 103.661 96.0552 103.677 95.7622 103.756C95.6753 103.779 95.5763 103.75 95.616 103.883C95.1926 103.99 94.123 104.486 93.9878 104.921C93.9563 105.023 94.0861 105.849 94.0902 106.069C94.0969 106.419 94.0619 106.906 94.0182 107.257C94.0075 107.343 93.9479 107.828 93.9293 107.852C93.8523 107.946 93.741 107.609 93.6988 107.553C93.2603 106.976 91.9041 106.778 91.989 107.822C92.0439 108.499 92.5577 109.745 93.3355 109.844C93.3139 110.042 93.2958 110.245 93.2833 110.443C92.7724 110.155 92.3377 109.724 91.9943 109.247C92.1065 109.146 91.8798 108.986 91.8717 108.972C91.589 108.482 91.2182 107.633 91.0818 107.044C91.0007 106.693 91.0103 106.282 90.8908 105.943C90.8881 105.792 90.8959 105.643 90.9058 105.493C91.0478 105.512 90.9941 105.417 91.0076 105.329C91.0945 104.751 91.2111 104.442 91.4039 103.908C91.4191 103.866 91.496 103.719 91.4155 103.709C91.7339 103.059 92.0678 102.614 92.6419 102.169L92.943 102.092C93.9113 101.272 95.2147 101.22 96.4034 101.179L96.403 101.18Z" fill="#396686"></path>
<path d="M112.519 102.025C112.439 102.556 112.563 102.341 112.912 102.456C113.082 102.512 113.43 102.844 113.503 103.009C113.558 103.131 113.576 103.403 113.64 103.47C113.665 103.495 113.765 103.512 113.834 103.567C113.271 103.417 113.254 103.709 112.992 104.026C112.807 104.251 112.564 104.425 112.494 104.755C112.482 104.809 112.422 105.314 112.431 105.342C112.516 105.6 113.132 105.177 113.25 105.08L113.762 104.57C113.678 104.947 112.988 105.738 112.585 105.648C112.474 105.624 112.406 105.434 112.269 105.486C112.192 105.516 112.049 106.008 111.868 105.862C111.778 105.79 112.127 105.243 112.181 105.136C112.327 104.846 112.536 104.506 112.646 104.193C112.672 104.12 112.663 103.975 112.674 103.962C112.721 103.908 112.965 103.985 113.02 103.634C113.074 103.279 112.968 102.693 112.633 102.512C112.333 102.35 112.503 102.784 112.343 102.952C112.145 103.162 112.227 102.889 112.22 102.821C112.193 102.557 112.064 102.399 111.98 102.166C112.14 102.187 112.301 102.185 112.437 102.28L112.517 102.024L112.519 102.025Z" fill="#F3B68B"></path>
<path d="M100.534 119.103L101.371 116.398C101.653 116.401 101.388 116.612 101.386 116.628C101.38 116.717 101.451 116.796 101.453 116.868C101.456 116.95 101.365 116.991 101.371 117.069C101.374 117.102 101.453 117.083 101.464 117.095C101.509 117.145 101.409 117.241 101.394 117.318C101.356 117.515 101.364 117.749 101.305 117.935C101.285 117.998 101.204 117.998 101.199 118.039C101.189 118.116 101.239 118.251 101.213 118.297C101.196 118.325 101.091 118.328 101.057 118.36C101.011 118.403 101.03 118.489 100.992 118.547C100.922 118.653 100.777 118.607 100.865 118.878C101.106 118.845 101.347 118.868 101.588 118.874C101.683 118.876 101.784 118.799 101.769 118.958C101.393 118.956 101.014 118.951 100.64 118.91C100.595 118.922 100.565 119.049 100.534 119.103L100.534 119.103ZM100.758 118.788C100.686 118.758 100.628 118.829 100.663 118.844C100.735 118.875 100.793 118.803 100.758 118.788Z" fill="#396686"></path>
<path d="M98.0331 111.92C97.9284 112.004 97.8182 112.055 97.7017 112.145C97.6612 112.177 97.5866 112.223 97.5607 112.256C97.548 112.272 97.5215 112.283 97.515 112.309C97.5116 112.323 97.5205 112.342 97.5188 112.359C97.271 112.447 96.8829 112.301 96.6237 112.242C96.3178 112.173 96.3815 112.153 96.1594 112.072C96.0029 112.014 95.7367 112.02 95.603 111.895C95.5558 111.852 95.5583 111.762 95.5134 111.73C95.4206 111.664 95.2582 111.697 95.2551 111.438C95.5349 111.518 95.7705 111.684 96.0454 111.784C96.442 111.93 97.367 112.155 97.7576 112.031C97.8505 112.002 97.9541 111.821 98.0331 111.921L98.0331 111.92Z" fill="#F3B68B"></path>
<path d="M86.7283 120.423C87.3826 120.288 88.0129 119.958 88.7545 119.868C88.8049 119.862 88.9148 119.827 88.8826 119.932C88.8322 120.092 88.6182 120.032 88.4757 120.09C88.3868 120.126 88.2213 120.293 88.1642 120.257L88.1045 120.168C88.1297 120.275 88.0089 120.305 87.9268 120.32C87.7336 120.354 87.4314 120.352 87.2491 120.385C87.1037 120.412 86.9699 120.48 86.8143 120.465C86.7807 120.579 86.6986 120.652 86.6518 120.729L86.6821 120.477C86.6958 120.474 86.7135 120.439 86.7278 120.424L86.7283 120.423Z" fill="#396686"></path>
<path d="M86.6796 120.427L86.6835 120.476C86.4009 120.541 86.0893 120.578 85.7994 120.645C85.7591 120.491 85.8696 120.554 85.9616 120.531C86.2109 120.469 86.519 120.464 86.6796 120.427Z" fill="#396686"></path>
<path d="M96.4023 101.18C95.2143 101.221 93.9106 101.273 92.9425 102.092L92.6415 102.17C93.6616 101.378 94.8813 101.033 96.1726 101.097C96.2627 101.102 96.3568 101.062 96.4023 101.18Z" fill="#366281"></path>
<path d="M84.5913 133.997C83.8944 132.96 83.7043 132.102 83.7497 130.848C83.7569 130.652 83.7544 130.382 83.8498 130.217C83.7763 131.751 83.8286 132.451 84.5544 133.797C84.5811 133.846 84.6843 133.963 84.5913 133.997Z" fill="#366281"></path>
<path d="M90.0048 112.543C90.0449 112.7 89.931 112.632 89.84 112.654C88.3566 113.005 87.2467 113.577 85.9338 114.307C85.8774 114.339 85.7505 114.405 85.7071 114.322C87.1726 113.534 88.3338 112.877 90.0049 112.543L90.0048 112.543Z" fill="#396686"></path>
<path d="M90.8896 105.944C91.009 106.283 90.9995 106.694 91.0805 107.045C91.2164 107.634 91.5877 108.483 91.8704 108.973C91.8785 108.987 92.1052 109.147 91.9929 109.248C91.282 108.262 90.913 107.165 90.8896 105.944Z" fill="#366281"></path>
<path d="M84.6223 127.964C84.6223 127.964 84.6056 128.012 84.5865 128.004C84.5768 127.999 84.5417 127.843 84.4246 127.933C84.2994 128.028 83.983 129.881 83.8457 130.167C83.892 129.222 84.243 128.284 84.4999 127.374C84.5217 127.296 84.5178 127.207 84.61 127.168C84.565 127.43 84.4132 127.774 84.6219 127.964L84.6223 127.964Z" fill="#366281"></path>
<path d="M99.1406 108.195L98.7539 105.135C99.046 106.139 99.1259 107.151 99.1406 108.195Z" fill="#F3B68B"></path>
<path d="M99.9155 112.422C99.4274 112.375 98.9325 112.368 98.4437 112.331C98.2482 112.316 97.8688 112.206 97.6878 112.243C97.6063 112.26 97.7214 112.574 97.5337 112.557C97.5417 112.499 97.5121 112.419 97.5184 112.359C97.52 112.342 97.5111 112.323 97.5145 112.31L97.5602 112.256C97.5861 112.223 97.6607 112.177 97.7012 112.146C98.322 112.202 98.9492 112.23 99.5674 112.316C99.6847 112.332 99.8299 112.327 99.9155 112.422Z" fill="#396686"></path>
<path d="M105.492 118.769C105.473 118.813 105.479 118.813 105.424 118.825C105.082 118.905 104.365 118.92 103.983 118.938C103.518 118.96 103.031 118.94 102.565 118.946L102.561 118.897C102.836 118.84 103.109 118.904 103.333 118.887L105.017 118.756C105.11 118.749 105.349 118.833 105.492 118.769Z" fill="#396686"></path>
<path d="M102.446 112.924C102.4 112.938 102.166 113.006 102.154 112.997C102.142 112.988 102.157 112.908 102.146 112.898C102.162 112.898 102.179 112.893 102.196 112.894C102.301 112.9 102.342 112.903 102.447 112.924L102.446 112.924Z" fill="#396686"></path>
<path d="M102.143 112.848L102.146 112.898C102.068 112.831 100.366 112.551 100.13 112.522C100.041 112.511 99.9476 112.557 99.9663 112.419C100.558 112.479 101.608 112.624 102.143 112.848Z" fill="#396686"></path>
<path d="M93.0126 112.11C92.9801 112.217 92.8774 112.307 92.9404 112.465C92.8816 112.348 92.8439 112.319 92.9174 112.168C92.5787 112.285 92.2107 112.258 91.8567 112.3C91.6028 112.33 91.4033 112.392 91.1416 112.405C91.1023 112.257 91.21 112.303 91.3049 112.292C91.874 112.228 92.4385 112.129 93.0126 112.11Z" fill="#396686"></path>
<path d="M99.1516 108.345C99.1525 108.986 99.1384 109.621 99.0002 110.25C98.9019 110.209 98.9551 110.086 98.9649 110.012C99.0332 109.492 99.0774 109.053 99.0658 108.524C99.0639 108.428 98.9979 108.329 99.1516 108.345Z" fill="#F3B68B"></path>
<path d="M91.4155 103.71C91.496 103.72 91.4192 103.867 91.404 103.909C91.2112 104.443 91.0945 104.752 91.0077 105.329C90.9942 105.418 91.0478 105.513 90.9059 105.494C90.9496 104.83 91.1268 104.3 91.4155 103.71Z" fill="#366281"></path>
<path d="M109.521 118.009C108.907 118.155 108.327 118.236 107.7 118.299C107.943 118.116 108.276 118.178 108.559 118.133C108.841 118.087 109.235 117.931 109.521 118.009Z" fill="#F3B68B"></path>
<path d="M86.0446 122.52C86.1884 121.99 86.348 121.264 86.6076 120.781L86.5475 121.169C86.4183 121.63 86.2016 122.088 86.0446 122.52Z" fill="#396686"></path>
<path d="M97.9146 138.697C97.928 138.722 97.9495 138.729 97.968 138.743C98.13 139.193 98.2707 139.69 98.1784 140.172C98.1414 139.777 98.0795 139.21 97.9236 138.832C97.9175 138.817 97.6545 138.736 97.9146 138.697Z" fill="#F3B68B"></path>
<path d="M114.014 105.248C113.918 105.204 113.957 105.074 113.959 104.993C113.969 104.533 114.038 104.06 113.888 103.613C113.941 103.666 113.974 103.654 114.016 103.76C114.136 104.068 114.055 104.891 114.014 105.248Z" fill="#F3B68B"></path>
<path d="M102.719 134.437C102.807 134.516 102.88 134.616 102.936 134.669C102.536 134.67 102.228 134.731 101.854 134.853C101.816 134.725 101.911 134.747 101.992 134.719C102.252 134.627 102.504 134.587 102.78 134.581L102.719 134.437Z" fill="#366281"></path>
<path d="M96.7672 136.742C96.7703 136.743 96.785 136.696 96.8053 136.693C97.2682 137.239 97.6049 137.853 97.9804 138.453C97.9952 138.477 97.9438 138.541 98.003 138.617C98.0345 138.657 98.36 138.863 98.4016 138.86C98.6095 138.848 98.4076 138.507 98.6096 138.643C98.5916 138.777 98.5591 138.905 98.5907 139.043C98.4414 138.962 98.0786 138.827 97.9694 138.742C97.9508 138.728 97.9294 138.722 97.916 138.697C97.7988 138.477 97.7091 138.13 97.5723 137.883C97.3469 137.476 97.03 137.123 96.7677 136.742L96.7672 136.742Z" fill="#366281"></path>
<path d="M96.4531 101.177C97.5352 101.127 98.7356 101.793 98.627 103.015C98.6032 103.28 98.3948 103.562 98.2496 103.778L98.5228 103.11C98.6271 102.61 98.4671 102.116 98.0959 101.77C97.6275 101.333 97.0425 101.329 96.4532 101.177L96.4531 101.177Z" fill="#366281"></path>
<path d="M98.1858 140.271C98.2209 140.75 97.8191 141.437 97.6112 141.861L98.1858 140.271Z" fill="#F3B68B"></path>
<path d="M106.358 118.353C106.175 118.459 105.864 118.465 105.664 118.407C105.67 118.393 105.655 118.372 105.66 118.358C105.85 118.354 106.043 118.313 106.233 118.311C106.338 118.311 106.351 118.353 106.358 118.353Z" fill="#F3B68B"></path>
<path d="M107.6 118.307C107.337 118.331 107.07 118.35 106.807 118.368C106.944 118.145 107.385 118.274 107.6 118.307Z" fill="#F3B68B"></path>
<path d="M105.657 118.308C105.652 118.322 105.665 118.343 105.661 118.358C105.656 118.372 105.67 118.393 105.664 118.407C105.622 118.519 105.572 118.63 105.49 118.719C105.527 118.567 105.557 118.412 105.608 118.263L105.657 118.308Z" fill="#396686"></path>
<path d="M90.4508 112.508C90.3578 112.541 90.2182 112.654 90.1044 112.535C90.2184 112.515 90.3127 112.441 90.4508 112.508Z" fill="#396686"></path>
<path d="M101.223 133.156L101.202 133.207C101.058 133.119 100.941 133.035 100.854 132.886C100.973 132.978 101.095 133.052 101.223 133.156Z" fill="#366281"></path>
<path d="M86.9258 136.458C87.326 136.806 87.7599 137.176 88.1535 137.509L87.2297 136.779L86.9258 136.458Z" fill="#366281"></path>
<path d="M106.709 118.376C106.629 118.38 106.505 118.422 106.457 118.346C106.534 118.35 106.659 118.294 106.709 118.376Z" fill="#F3B68B"></path>
<path d="M100.693 132.749C100.543 132.753 100.47 132.612 100.377 132.525C100.496 132.58 100.59 132.672 100.693 132.749Z" fill="#366281"></path>
<path d="M102.56 118.897L102.564 118.946C102.515 118.947 102.465 118.957 102.416 118.958C102.444 118.891 102.506 118.908 102.56 118.897Z" fill="#366281"></path>
<path d="M101.385 133.294L101.544 133.43C101.498 133.392 101.425 133.326 101.385 133.294Z" fill="#366281"></path>
<path d="M86.6584 136.229C86.6409 136.214 86.6229 136.199 86.6054 136.184L86.6503 136.131L86.6579 136.229L86.6584 136.229Z" fill="#366281"></path>
<path d="M102.504 134.253L102.398 134.162C102.433 134.193 102.469 134.222 102.504 134.253Z" fill="#366281"></path>
<path d="M88.3131 137.646C88.2776 137.616 88.242 137.585 88.207 137.555L88.3131 137.646Z" fill="#366281"></path>
<path d="M101.811 133.659C101.74 133.599 101.668 133.535 101.598 133.477L101.811 133.659Z" fill="#366281"></path>
<path d="M88.7355 130.237C88.6858 130.238 88.4955 130.246 88.4873 130.256C88.4544 130.294 88.5847 130.528 88.4337 130.509C88.3591 130.499 88.2554 130.447 88.2955 130.346C88.3234 130.276 88.4502 130.292 88.434 130.211C88.2913 130.235 88.1753 130.191 88.0762 130.089C88.2841 130.116 88.5348 130.174 88.7356 130.237L88.7355 130.237Z" fill="#366281"></path>
<path d="M93.0704 112.853C93.0631 112.855 93.0481 112.899 93.0258 112.907C93.0617 112.734 92.7887 112.61 92.9941 112.51C93.0369 112.62 93.0716 112.733 93.0704 112.853Z" fill="#396686"></path>
<path d="M88.0263 130.092C87.9792 130.089 87.9262 130.105 87.8778 130.103C87.8645 130.048 87.9237 130.054 87.9235 130.05L88.0263 130.092Z" fill="#366281"></path>
<path d="M95.4771 129.116C96.2071 129.627 96.99 130.069 97.7284 130.566C98.0045 130.752 98.2562 130.983 98.5276 131.173C98.4396 131.311 98.5238 131.253 98.5806 131.298C98.903 131.553 99.3121 131.718 99.2062 132.217C99.1256 132.244 99.1763 132.133 99.1196 132.122C99.074 132.113 98.7616 132.275 98.7381 132.301C98.6678 132.377 98.7084 132.579 98.6437 132.639C98.5903 132.689 98.4594 132.601 98.4413 132.625C98.3916 132.691 98.5907 132.984 98.444 133.021C98.4089 133.03 98.3413 132.981 98.2992 132.985C98.2853 132.986 98.2453 133.164 98.0795 133.102C98.1634 133.291 98.3042 133.397 98.2698 133.635C98.0955 133.733 97.9792 133.339 97.8591 133.468C97.8458 133.483 97.839 133.691 97.6726 133.795C97.4966 133.904 97.4631 133.748 97.3574 133.754C97.3236 133.756 97.3627 133.893 97.2666 133.862C97.0581 133.796 97.2743 133.692 97.2764 133.68C97.2902 133.601 97.2529 133.499 97.2558 133.415C96.9667 133.536 97.1604 133.843 96.73 133.704C96.7017 133.603 96.821 133.516 96.8108 133.429C96.808 133.406 96.7432 133.406 96.7271 133.384C96.6746 133.312 96.5763 133.092 96.4906 133.201C96.5836 133.27 96.5483 133.412 96.5583 133.419C96.5663 133.425 96.7606 133.399 96.6646 133.51C96.5685 133.622 96.5662 133.425 96.5583 133.419C96.4265 133.333 96.3454 133.579 96.2439 133.543C96.1794 133.52 96.1405 133.25 95.9027 133.321C95.9936 133.528 95.9666 133.933 96.1636 134.069C96.2616 134.138 96.4566 134.1 96.4282 134.325L96.2349 134.391C96.3036 134.184 95.8432 133.91 95.817 134.151C95.8153 134.168 96.0674 134.616 95.8389 134.421C95.8096 134.396 95.8968 134.267 95.6865 134.384C95.6841 134.275 95.6751 134.121 95.5187 134.148C95.611 134.336 95.5279 134.51 95.6247 134.698C95.6745 134.794 95.9883 135.113 95.9945 135.142C96.0053 135.192 95.9661 135.264 95.9768 135.326C96.0238 135.59 96.3004 135.757 96.3868 136.023C96.0615 135.819 95.8211 135.444 95.5669 135.143C95.5153 135.082 95.4303 135.072 95.4029 135.04C95.3479 134.973 95.1549 134.567 95.0939 134.533C95.0585 134.512 94.9774 134.591 94.9323 134.595C94.9204 134.596 94.7616 134.354 94.75 134.532C94.7296 134.849 95.0924 134.912 95.2915 135.089L94.9625 135.339C95.2173 135.552 94.9408 135.586 94.925 135.511C94.9037 135.409 94.928 135.157 94.8868 135.101C94.865 135.072 94.6162 135.045 94.5931 135.068C94.5691 135.093 94.6654 135.267 94.5044 135.223L94.4776 134.877C94.3875 134.782 94.3037 135.122 94.2928 135.149C94.2649 135.219 94.1411 135.249 94.2221 135.446C93.9626 135.506 94.1063 135.34 94.0919 135.18C94.0598 134.819 93.8024 135.073 93.7209 134.761L93.9162 134.721C93.9414 134.519 93.6099 134.589 93.5623 134.65C93.4824 134.751 93.7782 134.748 93.6761 134.839C93.637 134.874 93.4177 134.779 93.3073 134.988C93.2816 135.035 93.303 135.112 93.2984 135.117C93.2737 135.146 93.0957 135.081 93.0252 135.091C92.932 135.103 92.7441 135.31 92.7543 135.139C92.7635 134.982 92.8116 134.83 92.7651 134.662C92.5869 134.755 92.2411 134.744 92.2927 134.997L91.9772 134.773C91.9912 134.83 92.0911 135.149 92.107 135.161C92.1272 135.177 92.5613 135.034 92.6072 135.152C92.7246 135.45 92.4988 135.734 92.3648 135.291C92.2347 135.213 92.2495 135.629 92.0839 135.512C91.9815 135.439 92.1759 135.394 92.1739 135.381C92.1501 135.247 91.9989 135.277 91.9781 135.261C91.9542 135.241 91.8291 134.919 91.7847 134.888C91.6782 134.812 91.6992 135.083 91.5957 135.002C91.4592 134.894 91.6233 134.645 91.6126 134.526C91.6019 134.407 91.4719 134.344 91.4837 134.213C91.6154 134.201 91.7288 134.243 91.6742 134.072C91.6393 133.963 91.566 133.988 91.5281 133.943C91.4996 133.909 91.5164 133.837 91.4725 133.811C91.4167 133.779 91.2606 133.79 91.2509 133.782C91.1489 133.694 91.4481 133.657 91.3348 133.577C91.1866 133.473 90.9689 133.783 91.1139 133.943C90.7894 134.04 91.1111 133.618 90.8814 133.535C90.7675 133.494 90.6792 133.596 90.5724 133.588C90.5413 133.585 90.5315 133.517 90.4902 133.499C90.3421 133.432 89.9565 133.204 89.9815 133.482L90.3818 133.502C90.4346 133.674 90.203 133.562 90.1475 133.695C90.251 133.987 90.4592 133.754 90.6453 133.705C90.5714 133.787 90.6367 133.916 90.6194 133.995C90.6066 134.054 90.4028 134.101 90.4928 134.29C90.6751 134.256 90.627 134.009 90.8733 134.062C90.9188 134.198 90.7909 134.162 90.7349 134.244C90.6906 134.309 90.7034 134.506 90.5358 134.486C90.4382 134.474 90.4636 134.287 90.4302 134.255C90.3829 134.21 90.1805 134.287 90.2215 134.012L90.0276 134.077C90.0025 134.055 90.0841 133.893 90.0619 133.875C90.0455 133.863 89.728 133.838 89.6577 133.806C89.6021 133.648 89.7689 133.729 89.792 133.692C89.8142 133.658 89.774 133.577 89.7889 133.538C89.8081 133.489 89.8616 133.491 89.874 133.451C89.8903 133.399 89.9616 133.051 89.946 133.037C89.8139 133.03 89.7552 133.27 89.6171 133.205C89.5995 133.196 89.4828 132.997 89.4911 132.949C89.5131 132.822 89.8867 132.927 89.8162 132.648L89.5232 132.72L89.5569 132.519C88.8959 132.814 89.2828 132.467 89.2823 132.307C89.2824 132.25 89.2095 132.209 89.2062 132.173C89.1959 132.066 89.2406 131.942 89.205 131.83C89.1919 131.79 89.0548 131.821 89.0977 131.732C89.1527 131.619 89.3875 131.708 89.267 131.344L89.5677 131.372C89.5465 131.297 89.6059 131.209 89.6004 131.15C89.5997 131.142 89.4968 131.035 89.4895 131.031C89.3813 130.973 89.4061 131.209 89.2517 131.147C89.3326 130.962 89.0273 130.978 88.9925 131.018C88.9055 131.118 89.1078 131.174 89.1087 131.185C89.1341 131.41 88.8397 131.445 88.6764 131.441L88.8057 131.829C88.7465 131.805 88.5162 131.812 88.5045 131.803C88.4673 131.773 88.549 130.885 88.5807 130.85C88.5871 130.843 88.7146 130.834 88.7496 130.843C88.8416 130.865 88.7992 131.026 88.9381 130.972C88.8384 130.791 88.9814 130.489 88.7972 130.459C88.786 130.335 88.9898 130.314 88.7814 130.236C89.276 130.245 89.819 130.35 90.3177 130.36C92.0448 130.396 93.9951 130.015 95.4739 129.119L95.4771 129.116ZM89.2872 130.942C89.2978 130.931 89.4121 130.682 89.4094 130.667C89.3996 130.604 89.2533 130.428 89.1759 130.452C89.0264 130.593 89.0832 130.728 89.1791 130.879C89.2024 130.916 89.2016 131.028 89.2866 130.941L89.2872 130.942ZM98.428 131.181C98.4205 131.174 98.2652 131.183 98.2378 131.202C98.2033 131.227 98.1874 131.452 98.2044 131.511C98.2118 131.536 98.2715 131.54 98.3045 131.581C98.3255 131.607 98.308 131.678 98.3182 131.686C98.3524 131.717 98.5387 131.599 98.5606 131.618C98.5777 131.633 98.5682 131.857 98.7246 131.805C98.7998 131.482 98.3868 131.517 98.3509 131.485C98.2603 131.402 98.4233 131.376 98.4276 131.369C98.4481 131.331 98.435 131.188 98.427 131.181L98.428 131.181ZM90.4319 132.199C90.3146 132.114 90.183 132.397 90.0432 132.329C90.0505 132.436 90.2092 132.722 90.3139 132.607C90.3401 132.578 90.2466 132.432 90.2549 132.418C90.2624 132.405 90.5354 132.274 90.4319 132.199ZM90.86 132.675C90.8171 132.654 90.7661 132.671 90.7222 132.678C90.6835 132.834 90.6361 132.905 90.8045 132.98C91.1397 133.132 90.9351 132.71 90.86 132.675ZM97.8635 132.92C97.7055 132.83 97.5513 133.297 97.5993 133.338C97.8161 133.402 98.008 133.003 97.8635 132.92ZM95.1171 133.481C95.0242 133.402 94.8705 133.58 95.0552 133.635C95.1634 133.667 95.1326 133.495 95.1171 133.481ZM95.4412 133.804C95.5097 133.71 95.3477 133.569 95.2047 133.621C95.1892 133.626 95.0898 133.92 95.1026 133.93C95.1541 133.919 95.4303 133.818 95.4412 133.804ZM92.9181 134.05C92.9043 134.039 92.6632 134.15 92.5718 134.077C92.5403 134.237 92.7008 134.25 92.7891 134.347C92.884 134.452 92.9258 134.497 93.0303 134.597C93.0443 134.61 93.1741 134.883 93.2725 134.77C93.3229 134.712 93.1187 134.503 93.1061 134.449C93.0776 134.326 93.4068 134.187 92.9345 134.274C92.8316 134.226 92.9437 134.071 92.9171 134.05L92.9181 134.05ZM94.7706 134.156L94.3285 134.24L94.3439 134.438C94.5428 134.31 94.7945 134.47 94.7706 134.156ZM91.9502 134.424C91.8193 134.317 91.6612 134.779 91.6803 134.794C91.7991 134.886 92.0114 134.474 91.9502 134.424ZM94.2981 134.491C94.1487 134.454 93.922 134.719 94.0244 134.811C94.0416 134.827 94.1328 134.756 94.188 134.761C94.2528 134.768 94.2882 134.87 94.3746 134.834L94.2981 134.491ZM93.2431 135.021C93.2207 134.95 93.1545 134.914 93.0873 134.934L93.095 135.033L93.2431 135.021L93.2431 135.021ZM94.6971 134.809L94.701 134.859C94.7319 134.84 94.7306 134.823 94.6971 134.809Z" fill="#366281"></path>
<path d="M97.7461 112.391C97.7793 112.405 97.7806 112.422 97.7499 112.441L97.7461 112.391Z" fill="#396686"></path>
<path d="M88.9492 119.802C88.9825 119.816 88.9838 119.833 88.953 119.852L88.9492 119.802Z" fill="#396686"></path>
<path d="M92.9294 137.388C93.4924 136.73 94.4736 136.15 95.3401 136.006C95.6718 135.951 95.9684 135.895 96.1757 136.19C95.7107 135.907 94.8673 136.189 94.3857 136.392C93.9041 136.595 93.3156 137.022 92.9294 137.388Z" fill="#366281"></path>
<path d="M96.5486 136.51C96.5629 136.52 96.6741 136.485 96.7052 136.623L96.6591 136.651C96.607 136.608 96.5352 136.606 96.5486 136.51Z" fill="#366281"></path>
<path d="M96.3362 136.327L96.2832 136.281C96.3021 136.295 96.3174 136.314 96.3362 136.327Z" fill="#366281"></path>
<path d="M96.4964 136.464L96.4434 136.418C96.4618 136.433 96.478 136.45 96.4964 136.464Z" fill="#366281"></path>
<path d="M88.0021 130.447L88.2061 130.776C88.3032 130.808 88.2593 130.685 88.3049 130.669C88.6351 130.557 88.6003 130.893 88.2871 130.87C88.6127 131.618 88.0618 130.966 87.836 130.773C87.8198 130.686 87.8708 130.405 88.0026 130.447L88.0021 130.447Z" fill="#366281"></path>
<path d="M89.0243 132.061C89.0315 132.064 89.1315 132.178 89.1341 132.186C89.2395 132.485 88.8338 132.414 88.8131 132.429C88.798 132.44 88.6981 132.753 88.5599 132.468C88.5161 132.378 88.6384 132.393 88.645 132.383C88.7244 132.256 88.4585 132.303 88.485 132.151C88.6937 132.091 88.6553 132.36 88.8653 132.273C88.9049 132.257 88.8938 131.998 89.0243 132.061Z" fill="#366281"></path>
<path d="M91.3526 134.466C91.3454 134.476 91.1582 134.521 91.1138 134.539C91.1423 134.289 90.8886 134.511 90.9385 134.204C91.0544 134.19 91.5013 134.259 91.3526 134.466Z" fill="#366281"></path>
<path d="M93.7914 135.139C93.8072 135.151 93.8727 135.341 93.862 135.363L93.6375 135.589L93.7587 135.232L93.3538 135.139C93.3678 135.005 93.7724 135.126 93.7909 135.139L93.7914 135.139Z" fill="#366281"></path>
<path d="M93.279 135.467C93.2977 135.484 93.2758 135.65 93.2944 135.666C93.327 135.695 93.5353 135.57 93.5 135.749C93.347 135.69 93.2936 135.803 93.1579 135.826L93.1311 135.479C93.1716 135.482 93.2694 135.459 93.2791 135.468L93.279 135.467Z" fill="#366281"></path>
<path d="M90.0449 134.272L90.1289 134.714C89.9517 134.746 89.9875 134.494 89.9569 134.35C89.9358 134.252 89.9573 134.279 90.0449 134.272Z" fill="#366281"></path>
<path d="M87.4879 130.233C87.5303 130.234 87.6043 130.206 87.6306 130.231C87.5856 130.331 87.8182 130.396 87.7545 130.462C87.6249 130.594 87.516 130.32 87.4885 130.234C87.1979 130.229 87.4023 130.162 87.3242 130.047L87.1724 130.009C87.5105 129.953 87.4223 130.028 87.4879 130.233Z" fill="#366281"></path>
<path d="M92.6031 135.769C92.6346 135.796 92.582 136.113 92.4748 136.028C92.3338 135.916 92.5018 135.683 92.6031 135.769Z" fill="#366281"></path>
<path d="M88.8174 133.314C88.8137 133.325 88.6664 133.466 88.6356 133.434C88.5322 133.128 88.8776 133.14 88.8174 133.314Z" fill="#366281"></path>
<path d="M87.9289 130.153C87.9371 130.161 87.9462 130.292 87.9417 130.298C87.926 130.32 87.5701 130.269 87.6795 130.12C87.6872 130.11 87.9198 130.144 87.9285 130.153L87.9289 130.153Z" fill="#366281"></path>
<path d="M88.2853 131.518C88.2942 131.524 88.3607 131.701 88.3506 131.712C87.9968 131.823 88.1757 131.453 88.2853 131.518Z" fill="#366281"></path>
<path d="M94.2913 135.688L94.0938 135.703L94.0823 135.555C94.1725 135.537 94.2271 135.541 94.2851 135.615L94.2908 135.688L94.2913 135.688Z" fill="#366281"></path>
<path d="M91.3674 134.619C91.4522 134.692 91.3157 134.851 91.2309 134.778C91.1461 134.706 91.2826 134.546 91.3674 134.619Z" fill="#366281"></path>
<path d="M96.5926 133.865L96.4941 133.873L96.5094 134.07L96.6079 134.063L96.5926 133.865Z" fill="#366281"></path>
<path d="M98.9166 132.339C98.971 132.387 98.8335 132.545 98.7801 132.499C98.7267 132.452 98.8632 132.293 98.9166 132.339Z" fill="#366281"></path>
<path d="M94.6198 135.413C94.5723 135.468 94.4138 135.33 94.4604 135.277C94.507 135.223 94.6664 135.36 94.6198 135.413Z" fill="#366281"></path>
<path d="M89.6159 133.259L89.4688 133.271L89.4763 133.369L89.6234 133.357L89.6159 133.259Z" fill="#366281"></path>
<path d="M94.2639 135.99L94.166 135.997L94.1774 136.144L94.2753 136.137L94.2639 135.99Z" fill="#366281"></path>
<path d="M91.4247 134.066L91.4322 134.164L91.2851 134.176C91.2963 134.103 91.3556 134.057 91.4247 134.067L91.4247 134.066Z" fill="#366281"></path>
<path d="M92.2944 135.644C92.3522 135.693 92.2618 135.799 92.204 135.749C92.1463 135.7 92.2366 135.594 92.2944 135.644Z" fill="#366281"></path>
<path d="M96.1244 134.898C96.1822 134.948 96.0919 135.053 96.0341 135.004C95.9763 134.954 96.0667 134.849 96.1244 134.898Z" fill="#366281"></path>
<path d="M93.9409 135.018C93.9986 135.067 93.9083 135.173 93.8505 135.123C93.7927 135.074 93.8831 134.968 93.9409 135.018Z" fill="#366281"></path>
<path d="M95.9643 134.761C96.0221 134.811 95.9318 134.916 95.874 134.867C95.8162 134.817 95.9065 134.712 95.9643 134.761Z" fill="#366281"></path>
<path d="M89.0326 132.806C89.0904 132.856 89.0001 132.961 88.9423 132.912C88.8845 132.862 88.9749 132.757 89.0326 132.806Z" fill="#366281"></path>
<path d="M89.6323 134.105C89.69 134.155 89.5997 134.26 89.5419 134.211C89.4842 134.161 89.5745 134.056 89.6323 134.105Z" fill="#366281"></path>
<path d="M88.7534 130.485C88.8111 130.534 88.7208 130.64 88.663 130.59C88.6052 130.541 88.6956 130.436 88.7534 130.485Z" fill="#366281"></path>
<path d="M95.8959 134.517C95.9537 134.567 95.8634 134.672 95.8056 134.623C95.7478 134.573 95.8381 134.468 95.8959 134.517Z" fill="#366281"></path>
<path d="M87.1948 130.307C87.2525 130.356 87.1622 130.462 87.1044 130.412C87.0467 130.363 87.137 130.257 87.1948 130.307Z" fill="#366281"></path>
<path d="M97.4428 133.899C97.5006 133.948 97.4103 134.054 97.3525 134.004C97.2947 133.955 97.385 133.849 97.4428 133.899Z" fill="#366281"></path>
<path d="M96.894 133.892C96.9518 133.941 96.8614 134.047 96.8037 133.997C96.7459 133.948 96.8362 133.842 96.894 133.892Z" fill="#366281"></path>
<path d="M89.75 133.996C89.7832 134.01 89.7845 134.027 89.7538 134.045L89.75 133.996Z" fill="#366281"></path>
<path d="M111.966 103.912C111.988 103.991 111.953 104.017 111.897 104.061C111.678 104.231 111.06 104.104 110.776 104.242C110.745 104.2 110.405 104.045 110.476 103.978L111.966 103.912Z" fill="#F3B68B"></path>
<path d="M95.6152 103.883C95.5755 103.751 95.6744 103.78 95.7614 103.757C96.0543 103.678 96.4129 103.662 96.7203 103.648C96.8156 103.644 96.915 103.582 96.8989 103.734C96.4563 103.727 96.0492 103.773 95.6147 103.883L95.6152 103.883Z" fill="#366281"></path>
<path d="M92.9194 134.05C92.9459 134.071 92.8339 134.226 92.9367 134.274C93.409 134.187 93.0798 134.326 93.1083 134.449C93.1209 134.503 93.3246 134.713 93.2747 134.77C93.1763 134.883 93.0465 134.61 93.0325 134.597C92.9281 134.497 92.8862 134.452 92.7914 134.347C92.7026 134.249 92.5421 134.236 92.5741 134.077C92.6654 134.15 92.9061 134.039 92.9204 134.05L92.9194 134.05Z" fill="#396686"></path>
<path d="M98.4296 131.181C98.4376 131.188 98.4507 131.331 98.4302 131.369C98.4259 131.376 98.2629 131.402 98.3535 131.485C98.3889 131.517 98.8019 131.483 98.7272 131.805C98.5703 131.857 98.5797 131.632 98.5632 131.618C98.5408 131.599 98.3551 131.717 98.3208 131.686C98.3106 131.677 98.3281 131.607 98.3071 131.581C98.2741 131.54 98.2139 131.535 98.207 131.511C98.1895 131.452 98.2059 131.227 98.2404 131.202C98.2679 131.183 98.4231 131.174 98.4306 131.181L98.4296 131.181Z" fill="#396686"></path>
<path d="M89.2872 130.941C89.2018 131.027 89.2031 130.916 89.1799 130.879C89.0835 130.728 89.0273 130.593 89.1766 130.452C89.2534 130.428 89.3995 130.604 89.4098 130.667C89.412 130.682 89.2984 130.931 89.2877 130.942L89.2872 130.941Z" fill="#396686"></path>
<path d="M97.8647 132.92C98.009 133.003 97.8168 133.401 97.6008 133.337C97.5529 133.297 97.7069 132.83 97.8647 132.92Z" fill="#396686"></path>
<path d="M90.4326 132.199C90.5354 132.274 90.2633 132.405 90.2558 132.418C90.2475 132.432 90.3414 132.577 90.3148 132.606C90.2102 132.721 90.0517 132.436 90.0444 132.329C90.184 132.397 90.3155 132.114 90.4326 132.199Z" fill="#396686"></path>
<path d="M94.2986 134.491L94.3749 134.834C94.2886 134.87 94.2533 134.767 94.1886 134.761C94.1334 134.756 94.0424 134.827 94.0252 134.811C93.9225 134.718 94.1494 134.454 94.2986 134.491Z" fill="#396686"></path>
<path d="M90.8602 132.675C90.9357 132.71 91.1396 133.131 90.8048 132.98C90.6366 132.904 90.6839 132.834 90.7226 132.678C90.7664 132.671 90.8174 132.654 90.8602 132.675Z" fill="#396686"></path>
<path d="M94.771 134.156C94.7953 134.47 94.5436 134.31 94.3453 134.437L94.33 134.24L94.771 134.156Z" fill="#396686"></path>
<path d="M95.4408 133.804C95.43 133.818 95.1541 133.919 95.1027 133.93C95.0899 133.92 95.1892 133.626 95.2046 133.621C95.3475 133.569 95.5092 133.71 95.4408 133.804Z" fill="#396686"></path>
<path d="M91.9495 134.424C92.0106 134.474 91.7985 134.886 91.6799 134.793C91.6608 134.778 91.8187 134.317 91.9495 134.424Z" fill="#396686"></path>
<path d="M95.1178 133.481C95.1333 133.494 95.164 133.667 95.056 133.635C94.8716 133.58 95.0251 133.402 95.1178 133.481Z" fill="#396686"></path>
<path d="M93.2428 135.02L93.0957 135.032L93.0881 134.934C93.1548 134.914 93.2211 134.951 93.2428 135.02Z" fill="#396686"></path>
<path d="M94.6973 134.809C94.7305 134.823 94.7318 134.84 94.7011 134.858L94.6973 134.809Z" fill="#396686"></path>
<path d="M100.756 118.788C100.791 118.803 100.734 118.874 100.662 118.844C100.627 118.83 100.685 118.758 100.756 118.788Z" fill="#5A87A1"></path>
<path d="M97.5155 112.309C97.522 112.283 97.5483 112.272 97.5609 112.256L97.5155 112.309Z" fill="#F3B68C"></path>
</g>
<path d="M85.2427 216.519C80.8911 216.369 73.5392 229.483 69.7228 225.479C65.2124 220.743 81.2212 214.785 85.2427 216.519Z" fill="url(#paint1_linear_16148_273744)"></path>
<g filter="url(#filter0_f_16148_273744)">
<path d="M108 201.5C180.5 201.5 205.5 154.393 205.5 92.8135H250.5V251H-30V90H9.5C9.5 151.58 35.5001 201.5 108 201.5Z" fill="white"></path>
</g>
<g filter="url(#filter1_f_16148_273744)">
<rect x="207" y="24" width="67" height="226" fill="white"></rect>
</g>
<g filter="url(#filter2_f_16148_273744)">
<path d="M112 19.5C184.5 19.5 209.5 66.6068 209.5 128.187H254.5V-30H-26V131H13.5C13.5 69.4202 39.5001 19.5 112 19.5Z" fill="white"></path>
</g>
</g>
<defs>
<filter id="filter0_f_16148_273744" x="-39.3485" y="80.6515" width="299.197" height="179.697" filterUnits="userSpaceOnUse" color-interpolation-filters="sRGB">
<feFlood flood-opacity="0" result="BackgroundImageFix"></feFlood>
<feBlend mode="normal" in="SourceGraphic" in2="BackgroundImageFix" result="shape"></feBlend>
<feGaussianBlur stdDeviation="4.67423" result="effect1_foregroundBlur_16148_273744"></feGaussianBlur>
</filter>
<filter id="filter1_f_16148_273744" x="197.652" y="14.6515" width="85.6969" height="244.697" filterUnits="userSpaceOnUse" color-interpolation-filters="sRGB">
<feFlood flood-opacity="0" result="BackgroundImageFix"></feFlood>
<feBlend mode="normal" in="SourceGraphic" in2="BackgroundImageFix" result="shape"></feBlend>
<feGaussianBlur stdDeviation="4.67423" result="effect1_foregroundBlur_16148_273744"></feGaussianBlur>
</filter>
<filter id="filter2_f_16148_273744" x="-35.3485" y="-39.3485" width="299.197" height="179.697" filterUnits="userSpaceOnUse" color-interpolation-filters="sRGB">
<feFlood flood-opacity="0" result="BackgroundImageFix"></feFlood>
<feBlend mode="normal" in="SourceGraphic" in2="BackgroundImageFix" result="shape"></feBlend>
<feGaussianBlur stdDeviation="4.67423" result="effect1_foregroundBlur_16148_273744"></feGaussianBlur>
</filter>
<linearGradient id="paint0_linear_16148_273744" x1="170.833" y1="157.648" x2="135.507" y2="100.214" gradientUnits="userSpaceOnUse">
<stop stop-color="white"></stop>
<stop offset="0.475962" stop-color="#EFD7FA"></stop>
<stop offset="1" stop-color="#FFBFD7"></stop>
</linearGradient>
<linearGradient id="paint1_linear_16148_273744" x1="84.7114" y1="217.766" x2="71.9313" y2="205.434" gradientUnits="userSpaceOnUse">
<stop offset="0.0792281" stop-color="#BEE4F7"></stop>
<stop offset="1" stop-color="#83C8EA"></stop>
</linearGradient>
<clipPath id="clip0_16148_273744">
<rect width="220" height="220" fill="white"></rect>
</clipPath>
<clipPath id="clip1_16148_273744">
<rect width="46.6123" height="59.7353" fill="white" transform="translate(67.2148 102.711) rotate(-4.43203)"></rect>
</clipPath>
</defs>
</svg>